<svg width="14" height="14" viewBox="0 0 14 14" fill="none" xmlns="http://www.w3.org/2000/svg">
<path d="M7.00001 3.66671C6.63334 3.66671 6.33334 3.96671 6.33334 4.33337V6.33337H4.33334C3.96668 6.33337 3.66668 6.63337 3.66668 7.00004C3.66668 7.36671 3.96668 7.66671 4.33334 7.66671H6.33334V9.66671C6.33334 10.0334 6.63334 10.3334 7.00001 10.3334C7.36668 10.3334 7.66668 10.0334 7.66668 9.66671V7.66671H9.66668C10.0333 7.66671 10.3333 7.36671 10.3333 7.00004C10.3333 6.63337 10.0333 6.33337 9.66668 6.33337H7.66668V4.33337C7.66668 3.96671 7.36668 3.66671 7.00001 3.66671ZM7.00001 0.333374C3.32001 0.333374 0.333344 3.32004 0.333344 7.00004C0.333344 10.68 3.32001 13.6667 7.00001 13.6667C10.68 13.6667 13.6667 10.68 13.6667 7.00004C13.6667 3.32004 10.68 0.333374 7.00001 0.333374ZM7.00001 12.3334C4.06001 12.3334 1.66668 9.94004 1.66668 7.00004C1.66668 4.06004 4.06001 1.66671 7.00001 1.66671C9.94001 1.66671 12.3333 4.06004 12.3333 7.00004C12.3333 9.94004 9.94001 12.3334 7.00001 12.3334Z" fill="#9873FF"/>
</svg>
